<svg width="4795" height="2646" viewBox="0 0 4795 2646" fill="none" xmlns="http://www.w3.org/2000/svg">
<path fill-rule="evenodd" clip-rule="evenodd" d="M2381.49 622.129L2801.75 0L4020.5 1987.58L3626.93 2643.25L2813.15 1366.21L2381.49 622.129Z" fill="#8FD7B3"/>
<path fill-rule="evenodd" clip-rule="evenodd" d="M4020.49 1987.57L3626.93 2643.25L4393.22 2642.84L4794.74 1982.81L4020.49 1987.57Z" fill="#137359"/>
<path fill-rule="evenodd" clip-rule="evenodd" d="M2801.72 0H3598.01L4794.72 1982.82L4020.47 1987.58L2801.72 0Z" fill="#C8F1E2"/>
<path fill-rule="evenodd" clip-rule="evenodd" d="M0 1984.83L1213.1 0L2431.85 1987.58L2038.3 2643.27L1224.53 1366.22L456.461 2645.87L0 1984.83Z" fill="#8FD7B3"/>
<path fill-rule="evenodd" clip-rule="evenodd" d="M1224.49 1366.35L456.426 2646L1224.32 2643.12L1619.29 1985.89L1224.49 1366.35Z" fill="#137359"/>
<path fill-rule="evenodd" clip-rule="evenodd" d="M2431.92 1987.74L2038.36 2643.43L2804.66 2643.02L3206.18 1982.99L2431.92 1987.74Z" fill="#137359"/>
<path fill-rule="evenodd" clip-rule="evenodd" d="M1212.99 0H2009.29L3206 1982.83L2431.74 1987.58L1212.99 0Z" fill="#C8F1E2"/>
</svg>
